# xmcd
#
# Track frame offsets: 
#        182
#        13557
#        25817
#        38935
#        52037
#        65397
#        74992
#        84367
#        97782
#        111492
#        126140
#        138090
#        148947
#        162272
#        174735
#        186722
#        201805
#        214867
#        228997
#        240677
#        254190
#        263940
#
# Disc length: 3653 seconds
#
# Revision: 1
# Processed by: cddbd v1.5.2PL0 Copyright (c) Steve Scherf et al.
# Submitted via: ExactAudioCopy v0.95b4
#
DISCID=540e4316
DTITLE=The Howlin' Wolf - My Baby Walked Off
DYEAR=1900
DGENRE=Blues
TTITLE0=Moanin' At Midnight
TTITLE1=How Many more Years
TTITLE2=The Wolf Is At Your Door (Howlin for my baby)
TTITLE3=California Blues
TTITLE4=California Boogie
TTITLE5=Color And Kind (Look-A-Here Baby)
TTITLE6=Smile At Me
TTITLE7=My Baby Walked Off
TTITLE8=Champagne Velvet Blues (VC Wine Blues)
TTITLE9=My Troubles And Me
TTITLE10=Chocolate Drop
TTITLE11=Cadillac Daddy (Mr. Highway Man)
TTITLE12=Everybody's In The Mood
TTITLE13=Bluebird Blues
TTITLE14=Dorothy Mae
TTITLE15=Sweet Woman
TTITLE16=Well That's All Right
TTITLE17=Decoration Day Blues
TTITLE18=Oh! Red
TTITLE19=My Last Affair
TTITLE20=Come Back Home
TTITLE21=All Night Long (All Night Boogie)
EXTD=
EXTT0=
EXTT1=
EXTT2=
EXTT3=
EXTT4=
EXTT5=
EXTT6=
EXTT7=
EXTT8=
EXTT9=
EXTT10=
EXTT11=
EXTT12=
EXTT13=
EXTT14=
EXTT15=
EXTT16=
EXTT17=
EXTT18=
EXTT19=
EXTT20=
EXTT21=
PLAYORDER=
